<svg width="319" height="94" viewBox="0 0 319 94" fill="none" xmlns="http://www.w3.org/2000/svg">
<path fill-rule="evenodd" clip-rule="evenodd" d="M267.937 0H241.291V0.176279C239.43 5.45377 236.771 9.30439 233.314 11.7281C229.819 14.0621 226.557 15.2291 223.528 15.2291V29.5829H238.557V94.0001L241.291 94.0001L261.276 94.0001L267.937 94.0001H270.528H297.173V93.7178C273.654 91.1387 255.355 71.2064 255.355 47.0001C255.355 22.7937 273.654 2.86144 297.173 0.282389V0H270.528H267.937Z" fill="#EC524F" style="fill:#EC524F;fill:color(display-p3 0.9255 0.3216 0.3098);fill-opacity:1;"/>
<path fill-rule="evenodd" clip-rule="evenodd" d="M47 94.0001C72.9574 94.0001 94.0001 72.9574 94.0001 47C94.0001 21.0426 72.9574 0 47 0C21.0426 0 0 21.0426 0 47C0 72.9574 21.0426 94.0001 47 94.0001ZM46.815 66.6142C57.7498 66.6142 66.6142 57.8326 66.6142 47C66.6142 36.1674 57.7498 27.3858 46.815 27.3858C35.8802 27.3858 27.0158 36.1674 27.0158 47C27.0158 57.8326 35.8802 66.6142 46.815 66.6142Z" fill="#EC524F" style="fill:#EC524F;fill:color(display-p3 0.9255 0.3216 0.3098);fill-opacity:1;"/>
<path fill-rule="evenodd" clip-rule="evenodd" d="M181.098 3.53918C190.655 7.47377 198.648 14.4487 203.841 23.3845L181.726 36.2364C177.998 29.8337 171.099 25.5354 163.205 25.5354C151.35 25.5354 141.74 35.2283 141.74 47.1851C141.74 59.1418 151.35 68.8347 163.205 68.8347C171.214 68.8347 178.198 64.4107 181.887 57.8535L203.844 70.6101C198.652 79.5466 190.66 86.5227 181.103 90.4585C171.547 94.3944 160.96 95.0706 150.98 92.3825C141.001 89.6944 132.186 83.7918 125.899 75.5885C119.613 67.3851 116.205 57.3383 116.205 47.0032C116.204 36.668 119.61 26.6208 125.895 18.4166C132.181 10.2124 140.995 4.30867 150.974 1.61923C160.953 -1.07021 171.541 -0.395415 181.098 3.53918Z" fill="#EC524F" style="fill:#EC524F;fill:color(display-p3 0.9255 0.3216 0.3098);fill-opacity:1;"/>
<ellipse cx="297.5" cy="46.5" rx="21.5" ry="22.5" fill="#EC524F" style="fill:#EC524F;fill:color(display-p3 0.9255 0.3216 0.3098);fill-opacity:1;"/>
</svg>
