<svg width="264" height="307" viewBox="0 0 264 307" fill="none" xmlns="http://www.w3.org/2000/svg">
<g filter="url(#filter0_d_579_370)">
<path d="M259.1 155.9C259.1 179.89 247.18 201.09 228.95 213.91C239.24 196.62 244.93 176.63 244.93 155.9C244.93 135.17 238.97 114.74 228.64 97.6801C247.05 110.47 259.1 131.78 259.1 155.9Z" fill="#EC524F" style="fill:#EC524F;fill:color(display-p3 0.9255 0.3216 0.3098);fill-opacity:1;"/>
<path d="M34.46 97.71C24.13 114.77 18.17 134.71 18.17 155.93C18.17 177.15 23.85 196.64 34.14 213.93C15.91 201.11 4 179.91 4 155.93C4 131.95 16.05 110.5 34.46 97.71Z" fill="#EC524F" style="fill:#EC524F;fill:color(display-p3 0.9255 0.3216 0.3098);fill-opacity:1;"/>
<path d="M208.74 78.98L214.17 42.27C215.18 42.42 216.21 42.52 217.27 42.52C229.01 42.52 238.53 33 238.53 21.26C238.53 9.52 229.01 0 217.26 0C205.51 0 196 9.52 196 21.26C196 25.42 197.22 29.3 199.28 32.58L167.24 52.84C156.03 48.92 144.01 46.78 131.52 46.78C71.65 46.78 22.39 95.88 22.39 155.55C22.39 192.7 41.49 227.37 72.93 247.32L131.52 155.55L190.07 247.34C221.54 227.4 240.65 192.71 240.65 155.55C240.65 125.81 228.41 98.7 208.72 78.98H208.74Z" fill="#EC524F" style="fill:#EC524F;fill:color(display-p3 0.9255 0.3216 0.3098);fill-opacity:1;"/>
<path d="M220.51 35.43C228.336 35.43 234.68 29.0859 234.68 21.26C234.68 13.4342 228.336 7.09003 220.51 7.09003C212.684 7.09003 206.34 13.4342 206.34 21.26C206.34 29.0859 212.684 35.43 220.51 35.43Z" fill="#F8F8F8" style="fill:#F8F8F8;fill:color(display-p3 0.9745 0.9745 0.9745);fill-opacity:1;"/>
<path d="M131.53 170.08C139.356 170.08 145.7 163.736 145.7 155.91C145.7 148.084 139.356 141.74 131.53 141.74C123.704 141.74 117.36 148.084 117.36 155.91C117.36 163.736 123.704 170.08 131.53 170.08Z" fill="#EC1C24" style="fill:#EC1C24;fill:color(display-p3 0.9255 0.1098 0.1412);fill-opacity:1;"/>
<path d="M67.31 186.9C67.04 187.62 66.45 188.18 64.51 189.06L61.76 190.3C59.81 191.18 59 191.25 58.28 190.98C57.79 190.81 57.32 190.36 57 189.65C56.68 188.95 56.65 188.3 56.84 187.8C57.11 187.08 57.7 186.52 59.65 185.64L62.4 184.4C64.34 183.52 65.15 183.46 65.87 183.73C66.37 183.92 66.84 184.37 67.15 185.07C67.47 185.77 67.49 186.42 67.3 186.9H67.31ZM63.54 185.94L60.08 187.5C59.12 187.93 58.31 188.3 58.59 188.93C58.87 189.55 59.68 189.18 60.64 188.75L64.1 187.19C65.05 186.76 65.86 186.4 65.58 185.78C65.29 185.15 64.48 185.51 63.54 185.94Z" fill="#F8F8F8" style="fill:#F8F8F8;fill:color(display-p3 0.9745 0.9745 0.9745);fill-opacity:1;"/>
<path d="M63.93 177.17L62.87 177.46L54.63 179.83L53.58 180.15L53.06 178.34L54.12 178.05L61.85 175.82L61.26 173.78L62.82 173.33L63.92 177.17H63.93Z" fill="#F8F8F8" style="fill:#F8F8F8;fill:color(display-p3 0.9745 0.9745 0.9745);fill-opacity:1;"/>
<path d="M54.65 167.31V167.25L50.62 166.86L50.35 165.03L56.99 166L60.21 165.52L61.3 165.34L61.58 167.2L60.49 167.35L57.27 167.83L51.2 170.69L50.92 168.84L54.65 167.31Z" fill="#F8F8F8" style="fill:#F8F8F8;fill:color(display-p3 0.9745 0.9745 0.9745);fill-opacity:1;"/>
<path d="M59.51 158L50.93 157.83H49.83L49.88 155.34L55.11 154.59C55.53 154.52 56.18 154.47 56.58 154.44V154.38C56.19 154.34 55.54 154.27 55.12 154.18L49.92 153.2L49.97 150.74L51.07 150.78L59.65 150.95H60.75L60.72 152.62L59.62 152.58L54.63 152.48C54.21 152.48 53.64 152.43 53.23 152.41V152.47C53.64 152.52 54.25 152.64 54.63 152.71L60.7 153.83L60.67 155.19L54.56 156.08C54.18 156.13 53.56 156.21 53.15 156.25V156.31C53.56 156.31 54.13 156.29 54.55 156.29L59.54 156.39H60.64L60.61 158.06L59.51 158.02V158Z" fill="#F8F8F8" style="fill:#F8F8F8;fill:color(display-p3 0.9745 0.9745 0.9745);fill-opacity:1;"/>
<path d="M60.42 144.7L52 143.09L50.92 142.9L51.36 140.61C51.77 138.45 53.3 138.19 55.04 138.52H55.07C56.83 138.86 58.15 139.65 57.74 141.81L57.65 142.28L60.77 142.88L61.85 143.07L61.5 144.92L60.42 144.7ZM56.12 141.67C56.28 140.86 55.6 140.54 54.74 140.38H54.68C53.79 140.2 53.06 140.24 52.91 141.06L52.85 141.37L56.06 141.98L56.12 141.67Z" fill="#F8F8F8" style="fill:#F8F8F8;fill:color(display-p3 0.9745 0.9745 0.9745);fill-opacity:1;"/>
<path d="M54.35 129.33L55.39 129.69L63.53 132.39L64.58 132.72L63.99 134.51L62.95 134.15L54.81 131.45L53.76 131.12L54.35 129.33Z" fill="#F8F8F8" style="fill:#F8F8F8;fill:color(display-p3 0.9745 0.9745 0.9745);fill-opacity:1;"/>
<path d="M66.72 126.19C65.96 126.47 65.02 126.27 63.26 125.41L60.56 124.1C58.8 123.24 58.06 122.63 57.81 121.86C57.64 121.32 57.68 120.72 58.02 120.02C58.35 119.34 58.78 118.93 59.33 118.73C60 118.5 60.8 118.54 62.62 119.42L62.66 119.44L61.84 121.12L61.77 121.09C60.58 120.51 59.87 120.17 59.57 120.79C59.27 121.4 59.97 121.74 61.02 122.25L64.42 123.91C65.46 124.42 66.17 124.76 66.47 124.14C66.78 123.5 66.01 123.13 64.68 122.48L64.61 122.45L65.43 120.77L65.47 120.79C67.27 121.67 67.99 122.32 68.24 123.06C68.41 123.56 68.37 124.2 68.03 124.92C67.69 125.61 67.25 126.01 66.71 126.21L66.72 126.19Z" fill="#F8F8F8" style="fill:#F8F8F8;fill:color(display-p3 0.9745 0.9745 0.9745);fill-opacity:1;"/>
<path d="M75.98 111.19C75.17 111.28 74.31 110.85 72.82 109.59L70.53 107.66C69.03 106.4 68.46 105.62 68.41 104.81C68.37 104.25 68.56 103.67 69.06 103.08C69.55 102.5 70.07 102.21 70.65 102.15C71.35 102.09 72.12 102.32 73.66 103.63L73.7 103.66L72.5 105.09L72.44 105.04C71.42 104.19 70.82 103.68 70.38 104.21C69.94 104.73 70.53 105.22 71.43 105.98L74.32 108.42C75.21 109.17 75.81 109.67 76.25 109.14C76.71 108.6 76.05 108.04 74.92 107.09L74.86 107.04L76.06 105.61L76.09 105.64C77.62 106.93 78.16 107.74 78.22 108.52C78.27 109.05 78.07 109.66 77.56 110.27C77.06 110.86 76.53 111.14 75.97 111.2L75.98 111.19Z" fill="#F8F8F8" style="fill:#F8F8F8;fill:color(display-p3 0.9745 0.9745 0.9745);fill-opacity:1;"/>
<path d="M83.41 103.26C82.65 103.21 81.94 102.81 80.54 101.2L78.56 98.93C77.16 97.32 76.86 96.56 76.91 95.79C76.94 95.27 77.23 94.69 77.81 94.19C78.39 93.69 79 93.47 79.53 93.51C80.3 93.56 81 93.96 82.41 95.58L84.39 97.85C85.78 99.45 86.08 100.21 86.03 100.98C85.99 101.51 85.7 102.09 85.12 102.59C84.54 103.09 83.93 103.31 83.41 103.26ZM83.24 99.38L80.75 96.52C80.06 95.72 79.47 95.05 78.95 95.51C78.44 95.95 79.02 96.63 79.71 97.42L82.2 100.28C82.88 101.06 83.47 101.74 83.98 101.29C84.5 100.83 83.92 100.17 83.24 99.38Z" fill="#F8F8F8" style="fill:#F8F8F8;fill:color(display-p3 0.9745 0.9745 0.9745);fill-opacity:1;"/>
<path d="M91.76 97.23L91.18 96.29L86.56 89.07L85.95 88.15L87.54 87.13L88.12 88.07L92.46 94.85L94.25 93.71L95.13 95.08L91.77 97.23H91.76Z" fill="#F8F8F8" style="fill:#F8F8F8;fill:color(display-p3 0.9745 0.9745 0.9745);fill-opacity:1;"/>
<path d="M100.1 92.39L99.65 91.39L96.05 83.61L95.57 82.62L97.28 81.83L97.73 82.83L101.11 90.13L103.04 89.24L103.72 90.72L100.1 92.4V92.39Z" fill="#F8F8F8" style="fill:#F8F8F8;fill:color(display-p3 0.9745 0.9745 0.9745);fill-opacity:1;"/>
<path d="M109.39 83.59L110.31 86.6L112.59 85.9L113.07 87.46L109 88.7L108.69 87.64L106.18 79.43L105.84 78.38L109.86 77.15L110.34 78.72L108.1 79.4L108.89 81.97L110.68 81.42L111.17 83.02L109.38 83.57L109.39 83.59Z" fill="#F8F8F8" style="fill:#F8F8F8;fill:color(display-p3 0.9745 0.9745 0.9745);fill-opacity:1;"/>
<path d="M120.39 80.2L122.94 79.82L123.77 85.41L122.95 85.53L122.45 84.75H122.43C122.14 85.48 121.73 85.88 120.98 85.99C120.37 86.08 119.78 85.94 119.34 85.62C118.73 85.18 118.34 84.35 118.04 82.32L117.6 79.35C117.29 77.23 117.46 76.38 117.88 75.82C118.21 75.39 118.76 75.06 119.53 74.95C120.34 74.83 120.93 75 121.35 75.3C122.01 75.77 122.39 76.67 122.64 78.34V78.4L120.77 78.68V78.6C120.56 77.27 120.46 76.56 119.8 76.65C119.1 76.75 119.22 77.56 119.38 78.68L119.94 82.42C120.11 83.54 120.23 84.34 120.94 84.24C121.73 84.12 121.58 83.12 121.41 81.96L121.38 81.74L120.62 81.85L120.37 80.18L120.39 80.2Z" fill="#F8F8F8" style="fill:#F8F8F8;fill:color(display-p3 0.9745 0.9745 0.9745);fill-opacity:1;"/>
<path d="M131.63 80.26V83.41H134V85.04L129.74 85.03L129.76 83.93L129.79 75.35V74.25L133.98 74.26V75.9H131.64V78.58H133.5V80.25H131.63V80.26Z" fill="#F8F8F8" style="fill:#F8F8F8;fill:color(display-p3 0.9745 0.9745 0.9745);fill-opacity:1;"/>
<path d="M147.24 86.35C146.81 85.67 146.82 84.71 147.29 82.81L148.02 79.9C148.5 78 148.94 77.15 149.65 76.75C150.14 76.47 150.74 76.39 151.49 76.58C152.22 76.76 152.71 77.1 153.02 77.6C153.38 78.2 153.51 79 153.02 80.95V80.99L151.2 80.53L151.22 80.46C151.54 79.17 151.73 78.41 151.06 78.25C150.4 78.09 150.22 78.83 149.93 79.97L149.01 83.64C148.73 84.76 148.54 85.52 149.21 85.69C149.9 85.86 150.11 85.03 150.47 83.6L150.49 83.53L152.3 83.99V84.03C151.8 85.97 151.31 86.81 150.64 87.2C150.18 87.47 149.56 87.56 148.78 87.37C148.03 87.18 147.55 86.83 147.25 86.35H147.24Z" fill="#F8F8F8" style="fill:#F8F8F8;fill:color(display-p3 0.9745 0.9745 0.9745);fill-opacity:1;"/>
<path d="M157.63 89.55C157.34 88.84 157.39 88.03 158.22 86.07L159.39 83.29C160.22 81.32 160.77 80.72 161.48 80.43C161.96 80.22 162.61 80.24 163.32 80.53C164.03 80.83 164.49 81.29 164.69 81.78C164.98 82.49 164.93 83.3 164.1 85.27L162.93 88.05C162.1 90.01 161.55 90.61 160.85 90.9C160.36 91.1 159.71 91.09 159 90.79C158.29 90.49 157.83 90.03 157.64 89.55H157.63ZM161.05 87.69L162.53 84.19C162.94 83.22 163.28 82.4 162.65 82.13C162.03 81.87 161.68 82.68 161.27 83.66L159.79 87.16C159.39 88.12 159.04 88.94 159.67 89.2C160.31 89.47 160.65 88.65 161.06 87.69H161.05Z" fill="#F8F8F8" style="fill:#F8F8F8;fill:color(display-p3 0.9745 0.9745 0.9745);fill-opacity:1;"/>
<path d="M167.33 93.39L171.94 86.17L172.52 85.23L174.61 86.57L172.53 91.43C172.37 91.83 172.07 92.4 171.9 92.76L171.95 92.79C172.19 92.48 172.58 91.96 172.88 91.65L176.42 87.73L178.49 89.05L177.89 89.97L173.28 97.19L172.7 98.13L171.3 97.24L171.9 96.32L174.58 92.12C174.81 91.77 175.14 91.3 175.37 90.96L175.32 90.93C175.06 91.25 174.64 91.71 174.39 92L170.28 96.59L169.14 95.86L171.56 90.19C171.71 89.84 171.97 89.27 172.15 88.9L172.1 88.87C171.89 89.22 171.61 89.72 171.38 90.08L168.7 94.28L168.12 95.21L166.72 94.32L167.32 93.4L167.33 93.39Z" fill="#F8F8F8" style="fill:#F8F8F8;fill:color(display-p3 0.9745 0.9745 0.9745);fill-opacity:1;"/>
<path d="M178.23 101.1L183.99 94.75L184.72 93.92L186.45 95.49C188.08 96.97 187.51 98.41 186.31 99.72L186.29 99.74C185.08 101.07 183.72 101.79 182.09 100.31L181.73 99.99L179.59 102.35L178.86 103.18L177.46 101.91L178.21 101.11L178.23 101.1ZM183.06 99.01C183.67 99.57 184.29 99.15 184.88 98.51L184.92 98.47C185.53 97.8 185.87 97.15 185.26 96.6L185.03 96.39L182.83 98.81L183.06 99.02V99.01Z" fill="#F8F8F8" style="fill:#F8F8F8;fill:color(display-p3 0.9745 0.9745 0.9745);fill-opacity:1;"/>
<path d="M196.59 106.51L195.72 107.19L190.25 111.62C188.84 112.76 187.47 112.67 186.47 111.42C185.46 110.18 185.66 108.82 187.07 107.68L192.54 103.25L193.39 102.55L194.57 104.01L193.71 104.69L188.37 109.02C187.74 109.53 187.49 109.94 187.81 110.34C188.14 110.75 188.59 110.58 189.22 110.07L194.56 105.74L195.41 105.04L196.6 106.51H196.59Z" fill="#F8F8F8" style="fill:#F8F8F8;fill:color(display-p3 0.9745 0.9745 0.9745);fill-opacity:1;"/>
<path d="M200.96 116.17L194.03 120.23L193.09 120.8L192.14 119.17L193.1 118.63L200.03 114.57L199.24 113.23L200.66 112.4L203.17 116.68L201.75 117.51L200.96 116.17Z" fill="#F8F8F8" style="fill:#F8F8F8;fill:color(display-p3 0.9745 0.9745 0.9745);fill-opacity:1;"/>
<path d="M201.46 127.1L198.54 128.29L199.44 130.5L197.93 131.12L196.32 127.18L197.34 126.78L205.28 123.53L206.29 123.1L207.88 126.99L206.36 127.61L205.47 125.45L202.99 126.47L203.7 128.2L202.15 128.83L201.44 127.1H201.46Z" fill="#F8F8F8" style="fill:#F8F8F8;fill:color(display-p3 0.9745 0.9745 0.9745);fill-opacity:1;"/>
<path d="M204.48 137.35L201.26 138.15L200.19 138.43L199.74 136.6L200.81 136.35L209.14 134.29L210.2 134.01L210.77 136.29C211.3 138.41 210.02 139.29 208.32 139.71H208.29C207.24 139.98 206.25 139.96 205.53 139.38L201 141.73L200.52 139.81L204.58 137.81L204.47 137.36L204.48 137.35ZM206.02 136.96L206.09 137.24C206.3 138.09 207.01 138.08 207.85 137.87H207.89C208.72 137.65 209.37 137.31 209.17 136.5L209.09 136.19L206.02 136.95V136.96Z" fill="#F8F8F8" style="fill:#F8F8F8;fill:color(display-p3 0.9745 0.9745 0.9745);fill-opacity:1;"/>
<path d="M202.85 154.73C203.41 154.15 204.35 153.93 206.3 153.94L209.3 153.96C211.26 153.97 212.19 154.21 212.74 154.8C213.13 155.21 213.35 155.77 213.35 156.55C213.35 157.3 213.13 157.86 212.72 158.28C212.22 158.77 211.48 159.08 209.46 159.07H209.42L209.43 157.2H209.5C210.83 157.2 211.61 157.22 211.61 156.52C211.61 155.84 210.85 155.84 209.67 155.83L205.89 155.81C204.73 155.81 203.95 155.8 203.94 156.49C203.94 157.2 204.79 157.2 206.27 157.21H206.35V159.08H206.29C204.29 159.07 203.35 158.79 202.82 158.23C202.45 157.85 202.21 157.26 202.21 156.46C202.21 155.69 202.44 155.14 202.84 154.73H202.85Z" fill="#F8F8F8" style="fill:#F8F8F8;fill:color(display-p3 0.9745 0.9745 0.9745);fill-opacity:1;"/>
<path d="M201.86 164.81L202.95 164.99L211.43 166.29L212.52 166.44L212.23 168.3L211.14 168.12L203.18 166.9L202.86 169L201.25 168.75L201.86 164.8V164.81Z" fill="#F8F8F8" style="fill:#F8F8F8;fill:color(display-p3 0.9745 0.9745 0.9745);fill-opacity:1;"/>
<path d="M208.85 182.21L207.8 181.87L201.07 179.81C199.34 179.28 198.65 178.09 199.12 176.56C199.59 175.03 200.83 174.44 202.56 174.97L209.29 177.03L210.35 177.34L209.8 179.14L208.75 178.8L202.18 176.79C201.4 176.55 200.92 176.58 200.77 177.07C200.62 177.57 201 177.85 201.78 178.09L208.35 180.1L209.41 180.41L208.86 182.21H208.85Z" fill="#F8F8F8" style="fill:#F8F8F8;fill:color(display-p3 0.9745 0.9745 0.9745);fill-opacity:1;"/>
<path d="M196.32 184.67L197.3 185.17L205.02 188.91L206.02 189.38L204.99 191.51C204.23 193.08 202.89 193.38 201.4 192.65H201.37C200.34 192.14 199.82 191.47 199.73 190.65L199.68 190.62C198.97 191.18 198.03 191.26 196.93 190.73H196.9C195.04 189.82 194.48 188.45 195.27 186.83L196.32 184.67ZM196.8 187.38C196.45 188.1 196.86 188.57 197.8 189.02L197.85 189.05C198.72 189.47 199.34 189.44 199.65 188.79L199.82 188.45L196.96 187.06L196.8 187.39V187.38ZM201.29 189.16L201.13 189.49C200.85 190.06 201.26 190.56 202.01 190.92L202.05 190.94C202.77 191.29 203.33 191.23 203.61 190.66L203.76 190.36L201.29 189.16Z" fill="#F8F8F8" style="fill:#F8F8F8;fill:color(display-p3 0.9745 0.9745 0.9745);fill-opacity:1;"/>
<path d="M82.72 256.38C106.19 256.38 125.24 275.43 125.24 298.9H40.2C40.2 275.43 59.25 256.38 82.72 256.38Z" fill="#EC524F" style="fill:#EC524F;fill:color(display-p3 0.9255 0.3216 0.3098);fill-opacity:1;"/>
<path d="M67.53 271.97C79.26 271.97 88.79 281.5 88.79 293.23H46.27C46.27 281.5 55.8 271.97 67.53 271.97Z" fill="#F8F8F8" style="fill:#F8F8F8;fill:color(display-p3 0.9745 0.9745 0.9745);fill-opacity:1;"/>
<path d="M180.26 256.38C203.73 256.38 222.78 275.43 222.78 298.9H137.74C137.74 275.43 156.79 256.38 180.26 256.38Z" fill="#EC524F" style="fill:#EC524F;fill:color(display-p3 0.9255 0.3216 0.3098);fill-opacity:1;"/>
<path d="M165.06 271.98C176.79 271.98 186.32 281.51 186.32 293.24H143.8C143.8 281.51 153.33 271.98 165.06 271.98Z" fill="#F8F8F8" style="fill:#F8F8F8;fill:color(display-p3 0.9745 0.9745 0.9745);fill-opacity:1;"/>
<path d="M131.53 198.43C155.013 198.43 174.05 179.393 174.05 155.91C174.05 132.427 155.013 113.39 131.53 113.39C108.047 113.39 89.01 132.427 89.01 155.91C89.01 179.393 108.047 198.43 131.53 198.43Z" fill="#F8F8F8" style="fill:#F8F8F8;fill:color(display-p3 0.9745 0.9745 0.9745);fill-opacity:1;"/>
<path d="M131.53 184.26C147.187 184.26 159.88 171.567 159.88 155.91C159.88 140.253 147.187 127.56 131.53 127.56C115.873 127.56 103.18 140.253 103.18 155.91C103.18 171.567 115.873 184.26 131.53 184.26Z" fill="#EC524F" style="fill:#EC524F;fill:color(display-p3 0.9255 0.3216 0.3098);fill-opacity:1;"/>
</g>
<defs>
<filter id="filter0_d_579_370" x="0" y="0" width="263.1" height="306.9" filterUnits="userSpaceOnUse" color-interpolation-filters="sRGB">
<feFlood flood-opacity="0" result="BackgroundImageFix"/>
<feColorMatrix in="SourceAlpha" type="matrix" values="0 0 0 0 0 0 0 0 0 0 0 0 0 0 0 0 0 0 127 0" result="hardAlpha"/>
<feOffset dy="4"/>
<feGaussianBlur stdDeviation="2"/>
<feComposite in2="hardAlpha" operator="out"/>
<feColorMatrix type="matrix" values="0 0 0 0 0 0 0 0 0 0 0 0 0 0 0 0 0 0 0.25 0"/>
<feBlend mode="normal" in2="BackgroundImageFix" result="effect1_dropShadow_579_370"/>
<feBlend mode="normal" in="SourceGraphic" in2="effect1_dropShadow_579_370" result="shape"/>
</filter>
</defs>
</svg>
